<?xml version="1.0" standalone="no"?>
<!DOCTYPE svg PUBLIC "-//W3C//DTD SVG 20010904//EN"
 "http://www.w3.org/TR/2001/REC-SVG-20010904/DTD/svg10.dtd">
<svg version="1.0" xmlns="http://www.w3.org/2000/svg"
 width="320.000000pt" height="320.000000pt" viewBox="0 0 320.000000 320.000000"
 preserveAspectRatio="xMidYMid meet">
<metadata>
Created by potrace 1.14, written by Peter Selinger 2001-2017
</metadata>
<g transform="translate(0.000000,320.000000) scale(0.100000,-0.100000)"
fill="#000000" stroke="none">
<path d="M484 2509 c-2 -4 12 -43 32 -86 20 -43 70 -152 111 -243 41 -91 86
-190 100 -220 14 -30 53 -118 88 -195 34 -77 84 -184 109 -238 25 -55 46 -100
46 -102 0 -2 23 -51 50 -110 28 -59 50 -108 50 -110 0 -1 19 -45 43 -96 24
-52 66 -143 93 -204 33 -74 62 -121 88 -148 73 -71 68 -70 479 -73 202 -1 367
0 367 2 0 3 -563 1247 -617 1364 -9 19 -49 107 -90 194 -79 172 -111 216 -183
249 -43 20 -64 21 -403 22 -197 0 -361 -3 -363 -6z"/>
<path d="M1540 2501 c5 -9 140 -306 301 -661 160 -355 309 -683 330 -728 22
-46 39 -85 39 -87 0 -3 75 -168 93 -204 20 -40 70 -87 117 -112 44 -23 50 -23
405 -24 198 -1 363 0 367 2 4 2 -11 43 -33 91 -22 48 -49 105 -59 127 -10 22
-97 213 -193 425 -96 212 -186 410 -200 440 -316 697 -305 678 -397 723 -44
21 -54 22 -412 23 -337 2 -366 0 -358 -15z"/>
<path d="M311 1504 c-176 -46 -300 -202 -307 -386 -6 -152 58 -281 181 -363
103 -68 109 -69 523 -71 363 -2 373 -1 367 17 -19 57 -303 621 -334 661 -42
54 -137 119 -201 138 -64 18 -166 20 -229 4z"/>
</g>
</svg>
